<?xml version="1.0" encoding="UTF-8" standalone="no"?>
<svg
   xmlns:dc="http://purl.org/dc/elements/1.1/"
   xmlns:cc="http://creativecommons.org/ns#"
   xmlns:rdf="http://www.w3.org/1999/02/22-rdf-syntax-ns#"
   xmlns:svg="http://www.w3.org/2000/svg"
   xmlns="http://www.w3.org/2000/svg"
   viewBox="0 0 765.31549 346.20667"
   height="346.20667"
   width="765.31549"
   xml:space="preserve"
   id="svg2"
   version="1.1"><metadata
     id="metadata8"><rdf:RDF><cc:Work
         rdf:about=""><dc:format>image/svg+xml</dc:format><dc:type
           rdf:resource="http://purl.org/dc/dcmitype/StillImage" /></cc:Work></rdf:RDF></metadata><defs
     id="defs6" /><g
     transform="matrix(1.3333333,0,0,-1.3333333,0,346.20667)"
     id="g10"><path
       id="path12"
       style="fill:#1c191d;fill-opacity:1;fill-rule:evenodd;stroke:none"
       d="m 347.7246,-0.0128 95.9298,0.5797 c 15.2328,0.1707 55.3303,0.5114 68.1947,2.2167 -1.4686,0.7929 -123.3609,3.1887 -144.3622,4.5323 -8.0385,0.5134 -15.8979,0.6897 -23.9454,1.207 -20.859,1.3405 -49.5326,2.5413 -69.5455,4.9499 -49.231,5.9252 -78.5191,7.3434 -129.5957,20.0035 -48.6088,12.049 -114.3409,35.0116 -110.3165,88.6388 2.6263,35.0005 33.5483,70.5218 55.4584,94.0513 4.2863,4.6026 8.2219,8.1479 12.3959,12.5373 4.3348,4.5579 7.7355,7.2808 12.3262,12.1403 -4.3821,-1.101 -41.8405,-34.2136 -47.5325,-39.4886 -9.6729,-8.9652 -24.046,-23.3107 -32.4425,-33.3888 -3.2723,-3.9271 -6.7014,-8.1711 -9.7631,-12.3553 C 14.3589,141.7113 -2.9313,116.7384 0.3645,92.1586 3.799,66.5405 21.9081,53.5734 39.6743,43.5586 74.8894,23.7064 134.4385,13.6174 180.4065,8.4044 c 53.9339,-6.116 111.92,-8.2797 167.3181,-8.4172 z m -51.5194,31.042 v 35.6615 h 11.1702 c 4.1629,0 6.8899,-0.1743 8.1706,-0.5145 2.0423,-0.5479 3.723,-1.7268 5.0527,-3.5285 1.3283,-1.793 1.993,-4.1168 1.993,-6.9563 0,-2.5727 -0.5765,-4.7398 -1.7197,-6.4828 -1.1435,-1.7433 -2.5804,-2.9639 -4.3002,-3.6692 -1.7203,-0.7055 -4.6811,-1.0624 -8.8832,-1.0624 h -4.5643 V 31.0292 Z m 6.9191,29.6345 V 50.5032 h 3.8605 c 2.5798,0 4.3483,0.1582 5.2772,0.4649 0.9284,0.3072 1.6909,0.8637 2.2867,1.6687 0.5962,0.8138 0.8898,1.8014 0.8898,2.9716 0,1.1871 -0.3033,2.1917 -0.9187,3.005 -0.6162,0.8138 -1.3785,1.3615 -2.2776,1.6356 -0.8989,0.2738 -2.8046,0.4147 -5.7263,0.4147 z m 25.1458,-29.6345 v 35.6615 h 25.5067 v -6.027 h -18.5876 v -7.8693 h 17.2981 v -6.0261 h -17.2981 v -9.7127 h 19.2331 v -6.0264 z m 30.3061,11.6047 6.7427,0.6971 c 0.7631,-4.5485 3.2743,-6.8233 7.5252,-6.8233 2.1115,0 3.763,0.4646 4.9748,1.3946 1.2021,0.9298 1.8079,2.0835 1.8079,3.4614 0,0.8136 -0.2149,1.4944 -0.6355,2.067 -0.4201,0.5647 -1.065,1.0296 -1.925,1.3947 -0.8598,0.3654 -2.9512,0.9794 -6.2544,1.8349 -2.9613,0.7633 -5.131,1.5851 -6.5089,2.4732 -1.3683,0.8971 -2.463,2.0673 -3.274,3.5118 -0.8113,1.4525 -1.2215,3.0135 -1.2215,4.6814 0,1.9429 0.5176,3.6939 1.5633,5.2464 1.0463,1.5525 2.4823,2.7312 4.32,3.528 1.8372,0.7889 4.104,1.1869 6.8018,1.1869 4.0555,0 7.2224,-0.9292 9.4991,-2.7973 2.2777,-1.8677 3.4799,-4.5408 3.6162,-8.0107 l -6.9778,-0.2985 c -0.3027,1.901 -0.9674,3.2372 -1.9845,3.9929 -1.0159,0.7552 -2.4622,1.137 -4.3486,1.137 -1.8757,0 -3.3231,-0.3319 -4.3387,-0.9876 -1.0165,-0.6562 -1.5248,-1.4695 -1.5248,-2.4491 0,-0.9627 0.4694,-1.768 1.3972,-2.4236 0.9286,-0.656 3.0492,-1.3947 6.3428,-2.2 3.4994,-0.8717 6.0199,-1.7847 7.5742,-2.7309 1.5537,-0.9547 2.7462,-2.1753 3.5668,-3.6689 0.8212,-1.5029 1.232,-3.3208 1.232,-5.4626 0,-3.0878 -1.1245,-5.6943 -3.3628,-7.7945 -2.2473,-2.1087 -5.756,-3.1629 -10.5247,-3.1629 -8.4337,0 -13.125,4.0678 -14.0828,12.2026 z m 55.8127,1.5441 6.7439,-2.1915 c -1.0457,-4.0096 -2.7952,-6.9313 -5.2384,-8.7826 -2.4432,-1.8513 -5.4437,-2.7726 -9.0111,-2.7726 -4.4855,0 -8.1212,1.4692 -10.9057,4.3997 -3.206,3.3868 -4.8084,7.9602 -4.8084,13.7134 0,6.0764 1.6115,10.8332 4.837,14.2699 2.8146,2.9801 6.5875,4.4737 11.3171,4.4737 3.8602,0 7.0855,-1.1203 9.6854,-3.3619 1.8462,-1.5934 3.2051,-3.9592 4.0657,-7.0971 l -6.8607,-1.6937 c -0.4399,1.9261 -1.3195,3.4035 -2.6297,4.4328 -1.3087,1.0295 -2.8536,1.544 -4.6318,1.544 -2.5407,0 -4.6128,-0.9377 -6.2155,-2.8139 -1.6129,-1.876 -2.4134,-4.9726 -2.4134,-9.2886 0,-4.483 0.7809,-7.6708 2.3448,-9.5632 1.5639,-1.8927 3.5867,-2.8387 6.0888,-2.8387 1.8275,0 3.4107,0.6058 4.7492,1.8094 1.3297,1.2118 2.2969,3.1295 2.8828,5.7609 z M 458.123,31.0292 h -7.5255 l -2.9412,8.0682 h -13.8382 l -2.844,-8.0682 h -7.3887 l 13.3795,35.6615 h 7.4075 z m -12.7341,14.0952 -4.7687,13.2404 -4.6724,-13.2404 z m -53.7273,65.2247 c -3.117,0.5329 -9.2339,-3.3398 -14.3484,-3.587 -4.9034,-0.2361 -11.4778,1.4037 -13.2869,4.809 -1.9689,-0.9235 -0.1672,-0.1429 -1.1265,-0.7909 -1.9658,-1.3269 -3.1952,-0.4442 -6.1287,3.4314 -1.7453,2.3059 -3.3322,5.216 -4.9958,8.1377 -2.2286,3.916 -7.5589,13.9921 -8.0714,18.8438 3.6,2.1243 7.5643,5.0205 11.9648,7.7908 4.1337,2.6016 8.1516,5.091 12.4679,7.2723 10.1616,5.1361 4.5646,1.3733 7.952,6.6016 1.7362,2.6807 5.7651,5.1392 8.8682,6.1883 4.3934,1.4868 2.1401,-0.7608 8.8313,1.4187 -1.7875,-4.0138 -18.5686,-17.9317 -17.0835,-42.4916 3.842,-2.9234 1.8671,-0.9094 1.6733,-5.4638 -0.2645,-6.1852 12.5362,-11.0472 13.4713,-11.8613 5.3204,0.3705 8.2982,-2.6487 20.9078,0.9896 2.7995,0.807 10.3604,3.5314 12.5549,5.2934 1.6572,1.3312 0.9953,2.1821 1.9636,4.1324 2.9993,2.8136 1.9332,-3.8753 14.1403,8.4566 10.0423,10.1452 25.2173,27.6443 24.9812,43.8341 -0.1828,12.5314 -9.8691,23.1318 -24.4321,20.876 -14.1854,-2.198 -26.6836,-13.1902 -32.1752,-13.9093 2.7077,4.4739 10.7079,6.762 14.4839,9.964 -3.7094,1.6498 -15.6855,-8.4347 -19.1789,-9.1116 -2.1181,2.1563 -4.2304,6.1347 -5.7419,8.9917 -2.6541,5.0168 2.3366,6.1637 -2.7229,11.0889 -2.0467,-0.3881 -6.4063,-5.0865 -8.0039,-6.7212 -2.8299,-2.8962 -4.6594,-4.6233 -7.458,-7.1258 -2.0568,-1.8388 -13.9972,-13.0447 -14.6211,-14.4212 1.4176,0.4201 1.3252,0.6553 3.0172,1.0706 -1.1656,-2.2708 -9.6466,-8.9748 -12.1618,-9.9227 -7.3717,-2.7768 -1.2038,1.2683 -9.4357,-5.1247 -3.1946,-2.4818 -10.1094,-8.7151 -12.6884,-9.8263 1.5401,5.0695 20.2771,30.0489 20.9582,34.1716 -1.7268,-0.053 -1.9017,-0.3872 -3.3392,0.3473 -0.4646,2.9925 1.0996,5.061 1.2524,8.4648 -2.9962,2.9149 -24.7295,11.6481 -26.8617,11.9812 -1.275,-6.3034 1.8683,-1.8774 2.5571,-10.0976 0.2835,-3.3738 -0.4787,-9.794 -1.9754,-12.1586 -2.4256,-3.831 -1.9676,2.5188 -3.1544,-2.8432 -1.1639,-5.2529 -3.4373,-11.461 -5.1738,-16.5333 -1.8363,-5.3646 2.6393,-4.5831 -2.9662,-10.1994 -2.406,-2.4111 -7.8043,-15.0097 -9.6055,-19.0814 -5.2035,-11.7666 -4.015,-7.5033 -1.8062,-9.724 -0.2687,-8.85 -4.6871,-6.4839 -1.1747,-17.3902 3.1992,0.9822 3.0563,8.5045 7.5277,9.7319 0.917,-1.3589 2.0392,-3.9011 3.291,-4.9604 1.3944,1.7227 5.9355,12.1439 7.4996,15.4633 l 2.8463,5.3921 c 0.2628,-0.3354 0.3104,-0.3147 0.6188,-1.0018 l 2.6348,-10.5466 c 1.2167,-3.9912 2.4744,-7.4823 3.8631,-11.1977 2.008,-5.3691 3.5441,-5.1287 6.2336,-8.8132 13.8263,-18.9397 12.4257,-20.0644 23.7189,-13.7996 3.6477,2.0237 17.1343,9.5709 18.1948,11.5376 -3.3939,-0.3926 -6.1104,-3.4623 -10.3864,-2.8996 2.2286,3.7497 16.9339,10.5404 21.9381,12.8228 z m -263.5098,64.8884 2.3011,-1.2829 c -0.7843,-2.8698 -2.5562,-4.5528 -5.6826,-5.7479 0.0754,-5.269 1.118,-3.7462 -2.2493,-8.0614 -1.8629,-2.3871 -2.8794,-4.3963 -3.8463,-7.9829 7.2624,0.2049 0.2942,2.5492 19.7997,1.4419 3.7035,-0.2097 17.4311,-3.2178 19.1189,-2.3493 -1.1464,0.7906 -2.1929,1.0315 -3.7001,1.408 -1.4187,0.3546 -2.6238,0.5578 -3.7772,1.4306 7.5226,0.2288 27.8496,-7.3494 29.8114,-11.8876 -33.2807,-1.9636 -44.6808,-14.8814 -51.3819,-16.5141 1.4913,3.0903 3.0748,2.4576 4.8983,4.9246 -6.2136,-1.7558 -30.9586,-20.859 -32.15,-25.4458 2.2578,-1.474 4.415,-2.0965 7.2573,-1.6333 4.1125,0.6713 4.6641,-1.1849 7.8137,-1.3065 0.9476,0.2543 11.3317,10.5254 18.2588,7.5252 1.1344,-0.491 1.9743,-1.423 2.9792,-1.5245 1.2376,-0.1253 1.8683,0.7018 3.8993,0.904 -0.5031,-3.6678 -1.762,-3.9612 -2.2754,-7.0918 3.9986,0.3076 6.5974,-0.5459 10.0554,-0.3319 0.3912,0.1483 14.0284,18.0567 20.9704,20.0546 -0.9743,-2.359 -2.0778,-2.0401 -3.3372,-4.1423 0.8481,0.1618 10.0233,5.7929 15.3102,7.7754 4.4481,1.6676 5.0182,0.1916 7.6946,4.038 1.2943,1.8604 0.8496,2.0525 2.7383,2.844 1.3635,0.5709 3.1365,1.0026 4.8192,0.9184 -3.1745,-4.8589 -2.5373,-3.1459 -4.7798,-6.0809 -1.4692,-1.9236 -2.0653,-5.4725 -3.1669,-8.1757 -2.2773,-5.5885 -2.7025,-2.198 -5.5851,-5.6508 L 168.8879,94.5238 c -1.9786,-2.5393 -9.2628,-10.9392 -9.8206,-13.4705 6.6722,0.7991 5.0998,2.8956 14.4873,2.2762 1.3878,2.4542 6.3201,8.5932 8.8588,9.269 -0.8339,-5.6744 -4.7063,-7.9917 -5.3886,-11.8105 3.1881,1.6083 8.8412,9.8694 14.7651,12.4441 5.2622,2.2864 2.4156,-0.5372 8.1966,8.7256 2.1308,3.4134 16.0801,25.4386 16.6405,27.7438 -3.3964,-2.06 -6.859,-10.4712 -11.1118,-12.9277 0.9111,3.6431 8.2962,13.6018 10.7277,17.3537 3.032,4.6777 1.7765,4.4334 8.1372,5.9746 3.8942,0.9428 8.2085,2.3062 12.1427,2.5619 -0.8212,-5.5837 -3.4631,-6.133 -4.6751,-9.0867 -3.2233,-7.8508 -1.0083,-10.8944 -11.5716,-21.3466 -1.6416,-1.6248 -2.5643,-1.6645 -3.2707,-3.4302 3.1961,0.1417 4.9947,1.5409 8.0547,1.8034 4.1216,0.3535 3.7273,-1.328 8.5581,0.0306 3.1096,0.8756 5.5525,1.2379 6.7702,3.5912 1.4888,2.8769 1.1846,5.3677 5.2932,5.1653 2.1475,-2.2124 1.182,-3.4676 2.3519,-5.6599 4.0649,2.2411 0.506,3.9515 9.9774,4.4855 l 13.231,70.1453 -2.9906,1.3224 c -0.4068,3.4537 0.2835,4.8855 0.2852,7.9512 -2.5282,-1.889 -2.1646,-5.4414 -4.985,-6.2348 -1.2855,1.97 0.4339,1.957 -4.2506,3.5101 -7.6717,2.543 -5.8858,0.3243 -8.5102,-1.3226 -4.5935,-2.8826 -2.0395,6.1914 -15.5301,-11.6932 -7.9501,-10.5404 -17.4507,-21.9065 -24.7899,-32.1132 -1.6514,-2.2966 -2.5475,-1.8068 -5.9907,-2.1345 -2.3689,-0.2256 -4.807,-0.2103 -6.3539,-1.5063 -1.773,-1.4868 -3.4489,-5.0802 -6.3008,-2.6889 -7.6519,6.4165 -7.2233,7.5724 -18.1658,12.391 -8.8526,3.8988 -15.7612,5.4499 -25.9044,7.0855 l 1.9252,1.5741 c 5.4508,3.1853 11.3724,5.6336 17.3659,7.5353 16.2828,5.169 15.5262,-2.3881 18.6038,-4.1048 l 1.529,-0.6905 -1.1591,-8.7202 c 4.9921,7.878 8.2265,15.0216 12.5164,23.3903 2.0531,4.0042 11.304,21.9158 12.0045,24.9273 -2.4325,0.0411 -4.5919,-0.5839 -6.4296,0.675 -2.4556,1.6835 -0.6171,2.5591 -5.4473,2.0389 -11.9013,-1.2832 -26.0141,-3.7825 -36.5621,-8.5946 -8.5785,-3.9133 -5.0488,-4.7089 -8.1902,-6.3723 -3.2593,-1.7269 -5.7467,0.8405 -11.7544,-3.2871 -7.1955,-4.9419 -14.2654,-8.9025 -14.0054,-16.0625 z m 22.8659,79.9036 c 90.3799,-1.8766 291.3356,-1.4403 363.6513,-47.448 16.047,-10.2087 33.2102,-26.47 27.2328,-53.1151 -5.2436,-23.3753 -29.1705,-52.3048 -45.9128,-66.9469 -1.834,-1.6039 -3.6995,-3.6224 -5.3614,-4.9828 -3.7931,-3.1067 -7.1164,-6.4255 -11.0739,-9.6142 -1.7214,-1.3862 -10.0221,-8.1644 -10.8708,-9.5556 7.6691,2.7754 45.4042,33.5766 51.7691,38.7264 15.0738,12.196 32.9769,31.0283 43.3542,47.8731 14.9088,24.2014 13.8475,47.522 -6.3893,64.1654 -16.164,13.2945 -40.4501,22.3466 -63.8104,27.4396 -40.356,8.7976 -79.1875,13.5936 -120.9609,15.3499 -42.713,1.7958 -91.5996,3.7488 -133.7374,1.7972 -21.0268,-0.9737 -45.4598,-0.8646 -66.117,-2.151 -1.8292,-0.1136 -19.9154,-0.602 -21.7735,-1.538 z m 138.5496,-57.8027 c 2.2118,-1.9468 2.9307,-1.4125 3.8231,-4.9227 0.8121,-3.1915 0.6261,-5.7772 -0.0335,-8.9356 -1.1302,-5.4145 -3.4832,-9.074 -4.9391,-13.8881 -1.6333,0.9278 -0.1352,0.5843 -1.7254,1.3629 -2.0169,-6.2362 -6.0608,-14.3376 -8.8138,-19.9122 -1.5735,-3.1862 -8.5215,-17.3798 -8.7352,-20.0174 1.5168,0.8022 0.879,1.0442 2.8743,1.3895 -0.1205,-6.5758 -7.9123,-14.5678 -9.1721,-20.4171 9.7821,1.3039 7.282,4.6823 11.9917,8.7313 0.0899,-0.0652 0.1993,-0.0899 0.2378,-0.2342 l 1.7303,-1.3269 c 1.817,4.061 3.2312,0.7867 6.2028,5.5931 l 13.9549,21.7692 c 3.0221,4.9493 17.7069,26.5615 18.5916,29.5401 -2.6319,-0.5938 -3.348,-1.2858 -6.1718,-1.4295 0.9289,5.5474 9.2795,7.6748 9.9873,11.4117 -3.725,2.6623 -17.2437,8.4016 -22.7367,10.9466 -2.16,1.0015 -5.9069,3.6377 -7.0662,0.3393 z m 110.0483,-52.8055 -3.8217,0.009 c -1.9437,-4.0507 -0.8118,-7.4798 -1.7971,-11.7836 -0.9516,-4.1596 -0.5069,-8.1326 1.8459,-10.501 4.8143,-4.8486 16.31,-0.9538 21.3046,1.8967 8.9178,5.0882 17.9155,17.9427 17.9819,29.4417 0.0107,1.9412 -0.8156,4.8206 0.0612,5.8814 3.854,-3.3228 1.6203,-8.9187 1.296,-13.9754 4.1074,2.7201 6.8783,21.3537 -15.3947,17.1371 -5.6937,-1.0777 -10.1044,-4.0323 -12.8965,-6.9636 -2.1739,-2.2819 -7.0979,-8.3111 -8.5796,-11.1424 z m -172.2481,5.7379 c 2.1104,-0.009 4.1031,0.2305 6.1302,0.4348 4.3299,0.4369 3.7471,0.007 5.4924,0.6582 0.1145,0.0423 0.277,0.1353 0.3696,0.1732 1.6274,0.6781 7.6148,26.7608 7.5274,28.2005 -3.0016,-4.4889 -18.4407,-25.9458 -19.5196,-29.4667" /></g></svg>